<?xml version="1.0" encoding="utf-8"?>
<!-- Generator: Adobe Illustrator 24.2.3, SVG Export Plug-In . SVG Version: 6.00 Build 0)  -->
<svg version="1.1" id="Layer_1" xmlns="http://www.w3.org/2000/svg" xmlns:xlink="http://www.w3.org/1999/xlink" x="0px" y="0px"
	 viewBox="0 0 26 26" style="enable-background:new 0 0 26 26;" xml:space="preserve">
<style type="text/css">
	.st0{fill:#FFFFFF;}
</style>
<circle cx="12.9" cy="12.9" r="12.9"/>
<path class="st0" d="M12.8,6.4c2.1,0,2.3,0,3.1,0s1.2,0.2,1.4,0.3c0.4,0.1,0.6,0.3,0.9,0.6c0.3,0.3,0.4,0.5,0.6,0.9
	c0.1,0.3,0.2,0.7,0.3,1.4c0,0.8,0,1.1,0,3.1c0,2.1,0,2.3,0,3.1c0,0.8-0.2,1.2-0.3,1.4c-0.1,0.4-0.3,0.6-0.6,0.9s-0.5,0.4-0.9,0.6
	c-0.3,0.1-0.7,0.2-1.4,0.3c-0.8,0-1.1,0-3.1,0s-2.3,0-3.1,0s-1.2-0.2-1.4-0.3c-0.4-0.1-0.6-0.3-0.9-0.6c-0.3-0.3-0.4-0.5-0.6-0.9
	c-0.1-0.3-0.2-0.7-0.3-1.4c0-0.8,0-1.1,0-3.1c0-2.1,0-2.3,0-3.1s0.2-1.2,0.3-1.4c0-0.4,0.2-0.6,0.5-0.9C7.6,7,7.8,6.8,8.2,6.7
	c0.3-0.1,0.7-0.2,1.4-0.3C10.4,6.4,10.7,6.4,12.8,6.4z M12.8,5c-2.1,0-2.4,0-3.2,0C8.8,5,8.2,5.2,7.7,5.4c-0.5,0.2-1,0.5-1.4,0.9
	C5.9,6.7,5.6,7.2,5.4,7.7C5.2,8.2,5.1,8.7,5,9.6c0,0.8,0,1.1,0,3.2s0,2.4,0,3.2s0.2,1.4,0.4,1.9c0.2,0.5,0.5,0.9,0.9,1.4
	c0.4,0.4,0.9,0.7,1.4,0.9c0.5,0.2,1.1,0.3,1.9,0.4c0.8,0,1.1,0,3.2,0s2.4,0,3.2,0s1.4-0.2,1.9-0.4c0.5-0.2,0.9-0.5,1.4-0.9
	c0.4-0.4,0.7-0.9,0.9-1.4c0.2-0.5,0.3-1.1,0.4-1.9c0-0.8,0-1.1,0-3.2s0-2.4,0-3.2c0-0.8-0.2-1.4-0.4-1.9c-0.2-0.5-0.5-0.9-0.9-1.4
	c-0.4-0.4-0.9-0.7-1.4-0.9C17.4,5.2,16.8,5.1,16,5C15.1,5,14.9,5,12.8,5z"/>
<path class="st0" d="M12.8,8.8c-2.2,0-4,1.8-4,4s1.8,4,4,4s4-1.8,4-4C16.7,10.6,15,8.8,12.8,8.8z M12.8,15.3c-1.4,0-2.6-1.2-2.6-2.6
	s1.2-2.6,2.6-2.6s2.6,1.2,2.6,2.6C15.3,14.2,14.2,15.3,12.8,15.3z"/>
<path class="st0" d="M17.8,8.6c0,0.5-0.4,0.9-0.9,0.9S16,9.1,16,8.6s0.4-0.9,0.9-0.9C17.4,7.7,17.8,8.1,17.8,8.6z"/>
</svg>
