<?xml version="1.0" encoding="utf-8"?>
<!-- Generator: Adobe Illustrator 24.2.3, SVG Export Plug-In . SVG Version: 6.00 Build 0)  -->
<svg version="1.1" id="Layer_1" xmlns="http://www.w3.org/2000/svg" xmlns:xlink="http://www.w3.org/1999/xlink" x="0px" y="0px"
	 viewBox="0 0 26 26" style="enable-background:new 0 0 26 26;" xml:space="preserve">
<style type="text/css">
	.st0{fill:#FFFFFF;}
</style>
<circle cx="13" cy="13" r="12.9"/>
<path class="st0" d="M21.3,7.5H4.5c-0.3,0-0.6,0.3-0.6,0.6v9.7c0,0.3,0.3,0.6,0.6,0.6h16.8c0.3,0,0.6-0.3,0.6-0.6V8.1
	C21.9,7.8,21.6,7.5,21.3,7.5z M5,9l5,3.4l-5,4.4V9z M12.9,13L6.2,8.6h13.4L12.9,13z M10.9,13l1.6,1.1c0.1,0.1,0.2,0.1,0.3,0.1
	c0.1,0,0.2,0,0.3-0.1l1.6-1.1l5.1,4.4H5.9L10.9,13z M15.8,12.4l5-3.4v7.7L15.8,12.4z"/>
</svg>
